<?xml version="1.0" encoding="iso-8859-1"?>
<!-- Generator: Adobe Illustrator 18.0.0, SVG Export Plug-In . SVG Version: 6.00 Build 0)  -->
<!DOCTYPE svg PUBLIC "-//W3C//DTD SVG 1.1//EN" "http://www.w3.org/Graphics/SVG/1.1/DTD/svg11.dtd">
<svg version="1.1" id="Capa_1" xmlns="http://www.w3.org/2000/svg" xmlns:xlink="http://www.w3.org/1999/xlink" x="0px" y="0px"
	 viewBox="0 0 297 297" style="enable-background:new 0 0 297 297;" xml:space="preserve">
<g>
	<path d="M169.494,81.743c22.536,0,40.871-18.335,40.871-40.872C210.365,18.335,192.03,0,169.494,0
		c-22.537,0-40.872,18.335-40.872,40.871C128.622,63.408,146.957,81.743,169.494,81.743z"/>
	<path d="M73.084,81.743c22.536,0,40.871-18.335,40.871-40.872C113.955,18.335,95.62,0,73.084,0
		C50.547,0,32.212,18.335,32.212,40.871C32.212,63.408,50.547,81.743,73.084,81.743z"/>
	<path d="M228.161,88.55c-0.276-5.539-4.855-9.949-10.463-9.949H210.2c-10.15,10.943-24.638,17.809-40.706,17.809
		c-16.068,0-30.556-6.866-40.707-17.809H113.79C103.64,89.544,89.152,96.41,73.084,96.41c-16.068,0-30.556-6.866-40.707-17.809
		h-7.499c-5.785,0-10.476,4.691-10.476,10.476v111.017c0,5.785,4.691,10.476,10.476,10.476h40.417l-14.779,73.898
		c-1.135,5.673,2.544,11.192,8.218,12.327C59.428,296.934,60.119,297,60.8,297c4.891,0,9.266-3.444,10.261-8.424l15.601-78.006
		h69.252l15.601,78.006c0.995,4.98,5.37,8.424,10.261,8.424c0.681,0,1.373-0.066,2.066-0.206c5.674-1.135,9.353-6.654,8.218-12.327
		l-14.779-73.898h40.417c5.696,0,10.322-4.55,10.463-10.213V88.55z"/>
	<path d="M277.793,91.279c-2.996-1.927-6.762-2.202-10.008-0.728l-24.971,11.352v85.366l24.972,11.35
		c1.382,0.629,2.86,0.939,4.334,0.939c1.983,0,3.955-0.562,5.673-1.669c2.995-1.927,4.804-5.245,4.804-8.808v-88.994
		C282.597,96.526,280.788,93.208,277.793,91.279z"/>
</g>
<g>
</g>
<g>
</g>
<g>
</g>
<g>
</g>
<g>
</g>
<g>
</g>
<g>
</g>
<g>
</g>
<g>
</g>
<g>
</g>
<g>
</g>
<g>
</g>
<g>
</g>
<g>
</g>
<g>
</g>
</svg>
